<svg width="65" height="52" viewBox="0 0 65 52" fill="none" xmlns="http://www.w3.org/2000/svg">
<path fill-rule="evenodd" clip-rule="evenodd" d="M18 23.2308C18 28.3288 22.1328 32.4615 27.2308 32.4615C32.3288 32.4615 36.4615 28.3288 36.4615 23.2308C36.4615 18.1328 32.3288 14 27.2308 14C22.1328 14 18 18.1328 18 23.2308ZM33.6923 23.2308C33.6923 26.7994 30.7994 29.6923 27.2308 29.6923C23.6622 29.6923 20.7692 26.7994 20.7692 23.2308C20.7692 19.6622 23.6622 16.7692 27.2308 16.7692C30.7994 16.7692 33.6923 19.6622 33.6923 23.2308Z" fill="#002080"/>
<path d="M32.2517 30.2099C31.711 29.6692 31.711 28.7925 32.2517 28.2517C32.7924 27.711 33.6691 27.711 34.2098 28.2517L41.5945 35.6364C42.1352 36.1771 42.1352 37.0538 41.5945 37.5945C41.0537 38.1352 40.177 38.1352 39.6363 37.5945L32.2517 30.2099Z" fill="#002080"/>
</svg>
