<svg width="18" height="18" viewBox="0 0 18 18" fill="none" xmlns="http://www.w3.org/2000/svg">
<path d="M9.00033 0.666748C4.40033 0.666748 0.666992 4.40008 0.666992 9.00008C0.666992 13.6001 4.40033 17.3334 9.00033 17.3334C13.6003 17.3334 17.3337 13.6001 17.3337 9.00008C17.3337 4.40008 13.6003 0.666748 9.00033 0.666748ZM9.00033 13.1667C8.54199 13.1667 8.16699 12.7917 8.16699 12.3334V9.00008C8.16699 8.54175 8.54199 8.16675 9.00033 8.16675C9.45866 8.16675 9.83366 8.54175 9.83366 9.00008V12.3334C9.83366 12.7917 9.45866 13.1667 9.00033 13.1667ZM9.83366 6.50008H8.16699V4.83342H9.83366V6.50008Z" fill="#4C5666"/>
</svg>
