<svg width="36" height="36" viewBox="0 0 36 36" fill="none" xmlns="http://www.w3.org/2000/svg">
<circle cx="18" cy="18" r="18" fill="#E2E7F5"/>
<path d="M17.8421 6C18.8471 6 19.811 6.39925 20.5217 7.10991C21.2323 7.82058 21.6316 8.78444 21.6316 9.78947V17.3684C21.6316 18.3735 21.2323 19.3373 20.5217 20.048C19.811 20.7586 18.8471 21.1579 17.8421 21.1579C16.8371 21.1579 15.8732 20.7586 15.1625 20.048C14.4519 19.3373 14.0526 18.3735 14.0526 17.3684V9.78947C14.0526 8.78444 14.4519 7.82058 15.1625 7.10991C15.8732 6.39925 16.8371 6 17.8421 6ZM26.6842 17.3684C26.6842 21.8274 23.3874 25.5032 19.1053 26.1221V30H16.5789V26.1221C12.2968 25.5032 9 21.8274 9 17.3684H11.5263C11.5263 19.0435 12.1917 20.6499 13.3762 21.8344C14.5606 23.0188 16.1671 23.6842 17.8421 23.6842C19.5172 23.6842 21.1236 23.0188 22.308 21.8344C23.4925 20.6499 24.1579 19.0435 24.1579 17.3684H26.6842Z" fill="#197C93"/>
</svg>
