<?xml version="1.0" encoding="utf-8"?>
<!-- Generator: Adobe Illustrator 19.0.0, SVG Export Plug-In . SVG Version: 6.00 Build 0)  -->
<svg version="1.1" id="Layer_1" xmlns="http://www.w3.org/2000/svg" xmlns:xlink="http://www.w3.org/1999/xlink" x="0px" y="0px"
	 viewBox="0 0 500 500" style="enable-background:new 0 0 500 500;" xml:space="preserve">
<style type="text/css">
	.st0{fill:#ffffff;}
</style>
<g id="XMLID_1_">
	<path id="XMLID_6_" class="st0" d="M346,362.8L309.3,250l95.9-69.7H286.7L250,67.5l0,0h118.6l36.7,112.8l0,0l0,0
		C426.6,245.7,404.6,320.1,346,362.8z M154.1,362.8L154.1,362.8l95.9,69.7l96-69.7L250,293.1L154.1,362.8z M94.8,180.3L94.8,180.3
		c-22.4,69,3.6,142.1,59.3,182.5l0,0L190.7,250L94.8,180.3l118.6,0L250,67.5l0,0H131.4L94.8,180.3z"/>
</g>
</svg>
